<svg width="26" height="25" viewBox="0 0 26 25" fill="none" xmlns="http://www.w3.org/2000/svg">
<path d="M15.3712 14.8433L16.3824 15.868M16.3826 17.1928L20.3076 21.1715C20.6687 21.5375 21.2542 21.5376 21.6153 21.1716C21.9764 20.8057 21.9764 20.2125 21.6154 19.8466L17.6904 15.8679C17.3293 15.5019 16.7438 15.5018 16.3827 15.8678C16.0217 16.2337 16.0216 16.8269 16.3826 17.1928Z" stroke="white" stroke-opacity="0.7" stroke-width="1.5" stroke-linecap="round" stroke-linejoin="round"/>
<path d="M5.55025 9.08395C6.0935 7.02932 7.67714 5.42445 9.70459 4.87392C11.7321 4.32336 13.8954 4.91079 15.3796 6.41489C16.8638 7.91901 17.4434 10.1113 16.9002 12.1659C16.3569 14.2206 14.7733 15.8254 12.7458 16.376C10.7183 16.9265 8.55506 16.3391 7.07083 14.835C5.58664 13.3309 5.00697 11.1386 5.55025 9.08395Z" stroke="white" stroke-opacity="0.7" stroke-width="1.5" stroke-linecap="round" stroke-linejoin="round"/>
</svg>
